<?xml version="1.0" standalone="no"?>
<!DOCTYPE svg PUBLIC "-//W3C//DTD SVG 20010904//EN"
 "http://www.w3.org/TR/2001/REC-SVG-20010904/DTD/svg10.dtd">
<svg version="1.0" xmlns="http://www.w3.org/2000/svg"
 width="300.000000pt" height="300.000000pt" viewBox="0 0 300.000000 300.000000"
 preserveAspectRatio="xMidYMid meet">

<g transform="translate(0.000000,300.000000) scale(0.100000,-0.100000)"
fill="#000000" stroke="none">
<path d="M1380 2913 c-492 -53 -905 -332 -1123 -761 -262 -514 -187 -1121 191
-1559 204 -236 513 -409 817 -458 131 -22 353 -22 470 -1 138 24 278 72 406
137 379 196 627 523 736 972 28 111 25 439 -5 563 -65 274 -174 480 -356 671
-193 203 -397 324 -661 394 -150 39 -344 56 -475 42z m-394 -268 c118 -35 170
-154 128 -295 -57 -192 -294 -358 -481 -336 -139 16 -212 104 -200 243 7 90
46 163 132 248 135 133 281 182 421 140z m976 -687 c224 -104 238 -418 24
-543 -200 -117 -456 34 -456 270 0 219 231 365 432 273z m-552 -529 c122 -213
393 -298 615 -193 67 31 145 93 176 139 14 20 32 35 44 35 36 0 247 -58 385
-105 74 -26 150 -51 168 -57 17 -6 32 -16 32 -23 0 -23 -48 -173 -80 -250 -77
-182 -271 -423 -442 -548 -383 -280 -877 -342 -1317 -166 -130 52 -242 120
-371 225 -189 154 -355 407 -424 648 -14 49 -25 90 -23 92 1 1 53 20 115 43
351 129 690 198 1067 219 14 1 30 -15 55 -59z"/>
<path d="M1785 1911 c-109 -28 -185 -126 -185 -237 0 -52 39 -133 81 -168 48
-41 90 -56 154 -56 99 0 168 44 211 135 40 84 28 174 -34 245 -57 67 -151 100
-227 81z m161 -46 c64 -38 97 -93 102 -170 4 -54 0 -70 -23 -114 -85 -155
-295 -156 -379 -2 -24 46 -28 61 -24 116 10 165 180 254 324 170z"/>
</g>
</svg>
